# xmcd
#
# Track frame offsets:
#	150
#	15089
#	26708
#	38408
#	49678
#	63358
#	80527
#	95385
#	112156
#	127496
#	145036
#
# Disc length: 2174 seconds
#
# Revision: 2
# Processed by: cddbd v1.5.2PL0 Copyright (c) Steve Scherf et al.
# Submitted via: audiograbber 1.83.01
#
DISCID=8b087c0b
DTITLE=Novye pesni pridumala zhizny - Novye pesni pridumala zhizny
DYEAR=2012
DGENRE=Other
TTITLE0=Mihail Bondarenko - Oi, ryabina
TTITLE1=Gennadiy Moiseev - Travy Rossii
TTITLE2=Vot takie pirogi - Alexander Sumskoy
TTITLE3=Nikolay Tomin - Igray, garmony
TTITLE4=Alexander Sumskoy - Zolotye zakaty
TTITLE5=Sergey Fedenkov - Moy lyubimyi staryi gorod
TTITLE6=Vladislav Kazarcev - Dlya tebya
TTITLE7=Olga Nikiforova - Ryabinovyi gorod
TTITLE8=Anatoliy Saharov - Moy kray
TTITLE9=Alexander Spiridonov - Ryabinushka
TTITLE10=Natalya Starovoitova - Verilosy - sbylosy
EXTD=
EXTT0=
EXTT1=
EXTT2=
EXTT3=
EXTT4=
EXTT5=
EXTT6=
EXTT7=
EXTT8=
EXTT9=
EXTT10=
PLAYORDER=
